<?xml version="1.0" encoding="utf-8"?>
<!-- Generator: Adobe Illustrator 20.1.0, SVG Export Plug-In . SVG Version: 6.00 Build 0)  -->
<svg version="1.1" id="Layer_1" xmlns="http://www.w3.org/2000/svg" xmlns:xlink="http://www.w3.org/1999/xlink" x="0px" y="0px"
	 viewBox="0 0 128 128" style="enable-background:new 0 0 128 128;" xml:space="preserve">
<style type="text/css">
	.st0{fill:#008BFF;}
</style>
<g transform="translate(0.000000,128.000000) scale(0.100000,-0.100000)">
	<path class="st0" d="M894,1260c-108-43-175-133-182-247c-6-89,19-155,82-218c91-91,211-111,325-54c174,87,212,315,75,453
		C1116,1272,992,1299,894,1260z M1115,1070c19-21,18-22-70-110l-90-90l-50,50l-50,50l22,22l23,22l25-24l26-24l62,62
		c34,34,67,62,73,62S1105,1081,1115,1070z"/>
	<path class="st0" d="M23,1205l-21-64l85-28c47-15,88-33,90-40c2-6,41-170,87-365l82-353l367-3l367-2l10,22c8,20,70,286,70,301
		c0,3-17-1-37-10c-26-12-67-17-128-17c-77-1-98,3-147,26c-106,50-193,166-206,274l-5,44H490H343l-22,99c-26,113-6,95-170,152
		c-47,16-90,29-96,29S35,1241,23,1205z"/>
	<path class="st0" d="M419,259c-46-27-69-67-69-119C350-2,542-52,606,72c32,62,13,149-41,184C524,283,461,284,419,259z"/>
	<path class="st0" d="M895,268c-93-51-113-158-43-227c87-85,232-24,232,98c0,34-7,57-24,80C1023,272,944,295,895,268z"/>
</g>
</svg>
