<?xml version="1.0" encoding="utf-8"?>
<!-- Generator: Adobe Illustrator 20.1.0, SVG Export Plug-In . SVG Version: 6.00 Build 0)  -->
<svg version="1.1" id="Layer_1" xmlns="http://www.w3.org/2000/svg" xmlns:xlink="http://www.w3.org/1999/xlink" x="0px" y="0px"
	 viewBox="0 0 128 128" style="enable-background:new 0 0 128 128;" xml:space="preserve">
<style type="text/css">
	.st0{fill:#008BFF;}
</style>
<g transform="translate(0.000000,128.000000) scale(0.100000,-0.100000)">
	<path class="st0" d="M326,1264c-10-9-16-33-16-60v-44h-42c-55,0-107-26-135-69l-23-34V580V103l23-34C179-1,178-1,625,2
		c396,3,400,3,431,25c64,46,64,42,64,553c0,406-2,466-16,496c-23,49-67,77-131,82l-53,4v43c0,28-6,47-18,58c-43,39-92,4-92-65v-38
		h-70h-70v38c0,46-24,82-54,82c-34,0-56-30-56-78v-42h-75h-75v44c0,48-19,76-50,76C350,1280,334,1273,326,1264z M678,838
		c15-15,15-61,0-76c-8-8-60-12-169-12c-167,0-189,6-189,50s22,50,189,50C618,850,670,846,678,838z M942,623c25-22,23-59-4-77
		c-33-24-563-24-596,0c-26,18-28,50-5,76c15,17,38,18,301,18C890,640,926,638,942,623z M938,414c26-18,28-50,5-76
		c-15-17-38-18-301-18c-252,0-288,2-304,17c-25,22-23,59,4,77C375,438,905,438,938,414z"/>
</g>
</svg>
