<?xml version="1.0" encoding="utf-8"?>
<!-- Generator: Adobe Illustrator 20.1.0, SVG Export Plug-In . SVG Version: 6.00 Build 0)  -->
<svg version="1.1" id="Layer_1" xmlns="http://www.w3.org/2000/svg" xmlns:xlink="http://www.w3.org/1999/xlink" x="0px" y="0px"
	 viewBox="0 0 128 128" style="enable-background:new 0 0 128 128;" xml:space="preserve">
<style type="text/css">
	.st0{fill:#008BFF;}
</style>
<g transform="translate(0.000000,128.000000) scale(0.100000,-0.100000)">
	<path class="st0" d="M58,1264c-54-29-58-50-58-324c0-276,4-296,60-325c16-8,52-15,80-15h50v-43c0-44,13-67,39-67c8,0,47,25,87,55
		l73,55h176c274,0,265-11,265,335c0,272-5,302-61,330C727,1287,98,1286,58,1264z M495,1090c25-25,30-38,30-76c0-39-5-50-36-78
		c-20-19-39-41-42-50c-11-27-61-17-65,13c-6,42,7,69,39,80c25,9,30,15,27,38c-3,26-6,28-52,28c-56,0-80,21-56,50
		C377,1139,448,1137,495,1090z M438,818c17-17,15-43-4-59c-31-26-70,25-44,56C405,833,422,834,438,818z"/>
	<path class="st0" d="M900,711c0-70-30-122-95-162l-30-19h162c133,0,164-3,177-16c9-8,16-19,16-24s-7-16-16-24c-24-24-475-24-499,0
		c-9,9-13,24-10,35c6,18,0,19-74,19h-81V350c0-264,5-270,217-270h143l84-42c46-23,90-38,99-35s19,22,23,41l6,36h94c89,0,95,1,126,29
		l33,29v277v277l-33,29l-32,29h-155H900V711z M1114,364c20-19,20-29,0-48c-23-24-475-24-498,0c-9,8-16,19-16,24s7,16,16,24
		C639,388,1091,388,1114,364z"/>
</g>
</svg>
